# xmcd
#
# Track frame offsets:
# 150
# 16550
# 41623
# 60084
#
# Disc length: 1136 seconds
#
# Revision: 0
# Processed by: cddbd v1.5PL3 Copyright (c) Steve Scherf et al.
# Submitted via: MacMP3 Pro 5.0 (http://mp3.act2.co.jp/)
#
DISCID=1d046e04
DTITLE=Glen Scott - Do Something ep
DYEAR=1900
DGENRE=
TTITLE0=Do something(radio edit)
TTITLE1=Trick's in D
TTITLE2=97
TTITLE3=Do Something(Lsk roots rockers mix)
EXTD=
EXTT0=
EXTT1=
EXTT2=
EXTT3=
PLAYORDER=
